<svg width="38" height="34" viewBox="0 0 38 34" fill="none" xmlns="http://www.w3.org/2000/svg">
<rect x="0.5" y="1.02319" width="37" height="31.9536" rx="5.5" stroke="#F1F5F7"/>
<path fill-rule="evenodd" clip-rule="evenodd" d="M17.9866 25.7694V18.2693H10.1664C9.56111 18.2893 8.90547 18.1479 8.68455 17.75C8.46363 17.3521 8.44925 17.1277 8.68455 16.7499C8.91986 16.3721 9.4699 16.2692 10.1664 16.2692L17.9867 16.2479V8.24787C17.9869 7.65528 17.9735 7.04618 18.4867 6.74983C18.9997 6.45359 18.9737 6.44478 19.4867 6.74102C19.9999 7.03737 19.9866 7.58461 19.9866 8.1772L19.9867 11.7479L19.9866 16.2692H27.97C28.8637 16.2988 29.4866 16.3746 29.4866 17.2693C29.4866 18.1639 28.8637 18.2397 27.97 18.2693H19.9866V25.7694C19.9864 26.3621 19.9999 26.9518 19.4867 27.2482C18.9737 27.5445 18.9996 27.5571 18.4866 27.2607C17.9734 26.9644 17.9866 26.3621 17.9866 25.7694Z" fill="#809FB8"/>
</svg>
