<svg width="38" height="34" viewBox="0 0 38 34" fill="none" xmlns="http://www.w3.org/2000/svg">
<rect x="0.5" y="0.875" width="37" height="32.25" rx="5.5" stroke="#F1F5F7"/>
<path d="M20.6665 9.03125C21.587 9.03125 22.3332 9.82408 22.3332 10.8021V13.4583H25.6665C26.587 13.4583 27.3332 14.2512 27.3332 15.2292V23.1979C27.3332 24.1759 26.587 24.9688 25.6665 24.9688H12.3332C11.4127 24.9688 10.6665 24.1759 10.6665 23.1979V17.8854C10.6665 16.9074 11.4127 16.1146 12.3332 16.1146H15.6665V10.8021C15.6665 9.82408 16.4127 9.03125 17.3332 9.03125H20.6665ZM20.6665 10.8021H17.3332V23.1979H20.6665V10.8021ZM25.6665 15.2292H22.3332V23.1979H25.6665V15.2292ZM15.6665 17.8854H12.3332V23.1979H15.6665V17.8854Z" fill="#978AE1"/>
</svg>
