<svg width="21" height="20" viewBox="0 0 21 20" fill="none" xmlns="http://www.w3.org/2000/svg">
<g clip-path="url(#clip0_203_114)">
<path d="M19.4399 11.2078C18.8694 11.8329 17.976 12.2212 17.1085 12.2212H14.8137C15.3301 12.9694 15.7188 13.7223 15.9557 14.4393C16.3171 15.5333 16.3045 16.487 15.9191 17.1973C15.4849 17.9973 14.6052 18.4379 13.442 18.4379C13.3126 18.4379 13.1862 18.403 13.0787 18.3375C12.9712 18.2721 12.8875 18.1792 12.8382 18.0704C11.9324 16.0733 9.57 13.2029 7.34419 11.312C7.11706 12.0292 6.3892 12.5556 5.52817 12.5556H2.73198C1.68988 12.5556 0.842041 11.7848 0.842041 10.8375V3.28031C0.842041 2.33295 1.68988 1.56219 2.73198 1.56219H5.52817C6.16566 1.56219 6.73004 1.85093 7.07253 2.29179C7.59062 1.83865 8.27746 1.56219 9.03007 1.56219H16.0708C16.8492 1.56219 17.5423 1.86348 18.0753 2.43348C18.5147 2.90339 18.8268 3.53822 18.9777 4.26931L20.0155 9.29493C20.1547 9.9692 19.9503 10.6485 19.4399 11.2078ZM6.11182 3.28028C6.11182 2.98771 5.85 2.74965 5.52817 2.74965H2.73198C2.41015 2.74965 2.14829 2.98771 2.14829 3.28028V10.8375C2.14829 11.13 2.41015 11.368 2.73198 11.368H5.52817C5.85 11.368 6.11182 11.13 6.11182 10.8375V3.28028ZM18.7317 9.51402L17.6939 4.48837C17.5204 3.64781 17.0028 2.74965 16.0708 2.74965H9.03002C8.1412 2.74965 7.41811 3.48048 7.41811 4.37882V9.78718C9.88003 11.6452 12.6372 14.8362 13.8543 17.2212C14.5037 17.1213 14.6821 16.7926 14.7476 16.6719C15.1716 15.8907 14.8197 14.092 13.0456 11.9888C12.9714 11.9008 12.9257 11.7958 12.9138 11.6855C12.9019 11.5752 12.9242 11.4641 12.9781 11.3648C13.032 11.2654 13.1155 11.1817 13.219 11.1232C13.3225 11.0647 13.442 11.0337 13.5639 11.0337H17.1086C17.5902 11.0337 18.1108 10.8044 18.4347 10.4495C18.617 10.2497 18.8166 9.92519 18.7317 9.51402Z" fill="#809FB8"/>
</g>
<defs>
<clipPath id="clip0_203_114">
<rect width="20.9" height="19" fill="white" transform="matrix(1 0 0 -1 0 19.5)"/>
</clipPath>
</defs>
</svg>
