<svg width="18" height="18" viewBox="0 0 18 18" fill="none" xmlns="http://www.w3.org/2000/svg">
<path d="M16.7888 7.79223C16.2961 7.16713 15.5246 6.77881 14.7754 6.77881H12.7934C13.2395 6.03061 13.5752 5.2777 13.7797 4.56075C14.0919 3.46669 14.081 2.51298 13.7481 1.80271C13.3732 1.0027 12.6134 0.562103 11.6088 0.562103C11.4971 0.562106 11.3879 0.597031 11.295 0.66245C11.2022 0.727869 11.1299 0.820836 11.0873 0.92956C10.3051 2.92668 8.26483 5.79709 6.34254 7.68799C6.14639 6.97078 5.51778 6.44442 4.77416 6.44442H2.35927C1.45927 6.44442 0.727051 7.21518 0.727051 8.16251V15.7197C0.727051 16.6671 1.45927 17.4378 2.35927 17.4378H4.77416C5.32472 17.4378 5.81214 17.1491 6.10792 16.7082C6.55537 17.1614 7.14855 17.4378 7.79853 17.4378H13.8792C14.5514 17.4378 15.15 17.1365 15.6103 16.5665C15.9898 16.0966 16.2593 15.4618 16.3897 14.7307L17.286 9.70507C17.4062 9.0308 17.2297 8.35147 16.7888 7.79223ZM5.27822 15.7197C5.27822 16.0123 5.05211 16.2504 4.77416 16.2504H2.35927C2.08133 16.2504 1.85518 16.0123 1.85518 15.7197V8.16255C1.85518 7.86998 2.08133 7.63196 2.35927 7.63196H4.77416C5.05211 7.63196 5.27822 7.86998 5.27822 8.16255V15.7197ZM16.1772 9.48598L15.281 14.5116C15.1311 15.3522 14.6841 16.2504 13.8791 16.2504H7.79849C7.03087 16.2504 6.40638 15.5195 6.40638 14.6212V9.21282C8.53258 7.35483 10.9137 4.16383 11.9649 1.77881C12.5258 1.87871 12.6799 2.20738 12.7364 2.32806C13.1025 3.10925 12.7987 4.90798 11.2665 7.01123C11.2024 7.09916 11.163 7.2042 11.1527 7.31448C11.1424 7.42476 11.1616 7.53587 11.2082 7.63525C11.2548 7.73462 11.3268 7.81829 11.4162 7.87679C11.5056 7.9353 11.6088 7.96629 11.7141 7.96628H14.7754C15.1914 7.96628 15.641 8.19558 15.9207 8.55045C16.0782 8.75032 16.2505 9.07481 16.1772 9.48598Z" fill="#809FB8"/>
</svg>
