<svg width="38" height="34" viewBox="0 0 38 34" fill="none" xmlns="http://www.w3.org/2000/svg">
<rect x="0.5" y="0.808502" width="37" height="32.383" rx="5.5" stroke="#F1F5F7"/>
<path fill-rule="evenodd" clip-rule="evenodd" d="M15.6735 27.3235C10.6635 27.3235 8.52148 25.2235 8.52148 20.3135V20.1825C8.52148 15.7425 10.3075 13.6025 14.3065 13.2325C14.7219 13.2003 15.0898 13.4992 15.1434 13.9125C15.1611 14.1135 15.0978 14.3132 14.9675 14.4672C14.8372 14.6212 14.6508 14.7167 14.4496 14.7325C11.2496 15.0225 10.0496 16.5025 10.0496 20.1925V20.3235C10.0496 24.3935 11.5195 25.8335 15.6715 25.8335H22.3256C26.4785 25.8335 27.9475 24.3935 27.9475 20.3235V20.1935C27.9475 16.4825 26.7335 15.0035 23.4685 14.7335C23.1995 14.7137 22.9619 14.5504 22.8469 14.3062C22.7319 14.0621 22.7573 13.775 22.9135 13.5548C23.0695 13.3347 23.332 13.2157 23.6005 13.2435C27.6615 13.5835 29.4785 15.7335 29.4785 20.2045V20.3345C29.4785 25.2245 27.3356 27.3245 22.3256 27.3245L15.6735 27.3235ZM18.4595 21.6035L15.0415 18.2535C14.8995 18.1137 14.8196 17.9228 14.8196 17.7235C14.8196 17.5243 14.8995 17.3333 15.0415 17.1935C15.3436 16.9038 15.8204 16.9038 16.1226 17.1935L18.2356 19.2645V7.07352C18.2356 6.8002 18.3813 6.54765 18.6182 6.411C18.8549 6.27434 19.1464 6.27434 19.3831 6.411C19.6199 6.54765 19.7656 6.8002 19.7656 7.07352V19.2635L21.8777 17.1925C22.1802 16.9027 22.6572 16.9027 22.9597 17.1925C23.1017 17.3324 23.1816 17.5233 23.1816 17.7225C23.1816 17.9218 23.1017 18.1127 22.9597 18.2525L19.5417 21.6025C19.241 21.8965 18.7605 21.8965 18.4597 21.6025L18.4595 21.6035Z" fill="#809FB8"/>
</svg>
